<svg xmlns="http://www.w3.org/2000/svg" viewBox="0 0 120 150">
  <rect width="120" height="150" rx="4" fill="#f3e5f5"/>
  <rect x="3" y="3" width="114" height="144" rx="2" fill="none" stroke="#9c27b0" stroke-width="0.8" stroke-dasharray="3,2"/>
  <g fill="#f3e5f5" stroke="#e1bee7" stroke-width="0.5">
    <circle cx="6" cy="10" r="3.5"/><circle cx="6" cy="20" r="3.5"/><circle cx="6" cy="30" r="3.5"/><circle cx="6" cy="40" r="3.5"/><circle cx="6" cy="50" r="3.5"/><circle cx="6" cy="60" r="3.5"/><circle cx="6" cy="70" r="3.5"/><circle cx="6" cy="80" r="3.5"/><circle cx="6" cy="90" r="3.5"/><circle cx="6" cy="100" r="3.5"/><circle cx="6" cy="110" r="3.5"/><circle cx="6" cy="120" r="3.5"/><circle cx="6" cy="130" r="3.5"/><circle cx="6" cy="140" r="3.5"/>
    <circle cx="114" cy="10" r="3.5"/><circle cx="114" cy="20" r="3.5"/><circle cx="114" cy="30" r="3.5"/><circle cx="114" cy="40" r="3.5"/><circle cx="114" cy="50" r="3.5"/><circle cx="114" cy="60" r="3.5"/><circle cx="114" cy="70" r="3.5"/><circle cx="114" cy="80" r="3.5"/><circle cx="114" cy="90" r="3.5"/><circle cx="114" cy="100" r="3.5"/><circle cx="114" cy="110" r="3.5"/><circle cx="114" cy="120" r="3.5"/><circle cx="114" cy="130" r="3.5"/><circle cx="114" cy="140" r="3.5"/>
    <circle cx="20" cy="5" r="3.5"/><circle cx="30" cy="5" r="3.5"/><circle cx="40" cy="5" r="3.5"/><circle cx="50" cy="5" r="3.5"/><circle cx="60" cy="5" r="3.5"/><circle cx="70" cy="5" r="3.5"/><circle cx="80" cy="5" r="3.5"/><circle cx="90" cy="5" r="3.5"/><circle cx="100" cy="5" r="3.5"/>
    <circle cx="20" cy="145" r="3.5"/><circle cx="30" cy="145" r="3.5"/><circle cx="40" cy="145" r="3.5"/><circle cx="50" cy="145" r="3.5"/><circle cx="60" cy="145" r="3.5"/><circle cx="70" cy="145" r="3.5"/><circle cx="80" cy="145" r="3.5"/><circle cx="90" cy="145" r="3.5"/><circle cx="100" cy="145" r="3.5"/>
  </g>
  <rect x="10" y="10" width="100" height="100" rx="3" fill="#f8f0ff"/>
  <!-- Fleurs fond -->
  <circle cx="22" cy="25" r="5" fill="#f48fb1" opacity="0.35"/>
  <circle cx="98" cy="30" r="4" fill="#ce93d8" opacity="0.3"/>
  <circle cx="15" cy="80" r="3.5" fill="#f48fb1" opacity="0.25"/>
  <circle cx="105" cy="85" r="4" fill="#ce93d8" opacity="0.28"/>
  <!-- Papillon principal -->
  <g transform="translate(60,62)">
    <!-- Ailes supérieures -->
    <path d="M0,-5 C-8,-25 -35,-30 -38,-18 C-42,-5 -25,10 0,5 Z" fill="url(#wing1)"/>
    <path d="M0,-5 C8,-25 35,-30 38,-18 C42,-5 25,10 0,5 Z" fill="url(#wing1r)"/>
    <!-- Ailes inférieures -->
    <path d="M0,5 C-10,15 -30,25 -28,35 C-25,44 -8,42 0,28 Z" fill="url(#wing2)"/>
    <path d="M0,5 C10,15 30,25 28,35 C25,44 8,42 0,28 Z" fill="url(#wing2r)"/>
    <!-- Motifs ailes -->
    <circle cx="-20" cy="-14" r="6" fill="#7b1fa2" opacity="0.25"/>
    <circle cx="-14" cy="-8" r="3.5" fill="#ffd54f" opacity="0.5"/>
    <circle cx="20" cy="-14" r="6" fill="#7b1fa2" opacity="0.25"/>
    <circle cx="14" cy="-8" r="3.5" fill="#ffd54f" opacity="0.5"/>
    <circle cx="-15" cy="22" r="4.5" fill="#7b1fa2" opacity="0.2"/>
    <circle cx="15" cy="22" r="4.5" fill="#7b1fa2" opacity="0.2"/>
    <!-- Corps -->
    <ellipse cx="0" cy="12" rx="3" ry="18" fill="#4a148c"/>
    <!-- Tête -->
    <circle cx="0" cy="-8" r="3.5" fill="#4a148c"/>
    <!-- Antennes -->
    <path d="M-1,-11 Q-12,-25 -15,-30" stroke="#6a1b9a" stroke-width="1.2" fill="none" stroke-linecap="round"/>
    <path d="M1,-11 Q12,-25 15,-30" stroke="#6a1b9a" stroke-width="1.2" fill="none" stroke-linecap="round"/>
    <circle cx="-15" cy="-30" r="2.5" fill="#ce93d8"/>
    <circle cx="15" cy="-30" r="2.5" fill="#ce93d8"/>
  </g>
  <defs>
    <linearGradient id="wing1" x1="0" y1="0" x2="1" y2="1">
      <stop offset="0%" stop-color="#e040fb"/>
      <stop offset="50%" stop-color="#ab47bc"/>
      <stop offset="100%" stop-color="#7b1fa2"/>
    </linearGradient>
    <linearGradient id="wing1r" x1="1" y1="0" x2="0" y2="1">
      <stop offset="0%" stop-color="#e040fb"/>
      <stop offset="50%" stop-color="#ab47bc"/>
      <stop offset="100%" stop-color="#7b1fa2"/>
    </linearGradient>
    <linearGradient id="wing2" x1="0" y1="0" x2="1" y2="1">
      <stop offset="0%" stop-color="#ce93d8"/>
      <stop offset="100%" stop-color="#9c27b0"/>
    </linearGradient>
    <linearGradient id="wing2r" x1="1" y1="0" x2="0" y2="1">
      <stop offset="0%" stop-color="#ce93d8"/>
      <stop offset="100%" stop-color="#9c27b0"/>
    </linearGradient>
  </defs>
  <!-- Petits papillons -->
  <g transform="translate(25,40) scale(0.4)" opacity="0.6">
    <path d="M0,-5 C-6,-18 -25,-22 -27,-13 C-30,-4 -18,7 0,4 Z" fill="#e040fb"/>
    <path d="M0,-5 C6,-18 25,-22 27,-13 C30,-4 18,7 0,4 Z" fill="#e040fb"/>
    <path d="M0,4 C-7,11 -20,18 -19,25 C-17,31 -5,29 0,20 Z" fill="#ce93d8"/>
    <path d="M0,4 C7,11 20,18 19,25 C17,31 5,29 0,20 Z" fill="#ce93d8"/>
    <ellipse cx="0" cy="10" rx="2" ry="12" fill="#4a148c"/>
  </g>
  <g transform="translate(95,45) scale(0.35)" opacity="0.5">
    <path d="M0,-5 C-6,-18 -25,-22 -27,-13 C-30,-4 -18,7 0,4 Z" fill="#f48fb1"/>
    <path d="M0,-5 C6,-18 25,-22 27,-13 C30,-4 18,7 0,4 Z" fill="#f48fb1"/>
    <path d="M0,4 C-7,11 -20,18 -19,25 C-17,31 -5,29 0,20 Z" fill="#f8bbd0"/>
    <path d="M0,4 C7,11 20,18 19,25 C17,31 5,29 0,20 Z" fill="#f8bbd0"/>
    <ellipse cx="0" cy="10" rx="2" ry="12" fill="#880e4f"/>
  </g>
  <!-- Étincelles -->
  <circle cx="82" cy="25" r="1.2" fill="#ffd54f" opacity="0.8"/>
  <circle cx="38" cy="88" r="1" fill="#ffd54f" opacity="0.6"/>
  <circle cx="90" cy="75" r="0.9" fill="#ffd54f" opacity="0.7"/>
  <!-- Label -->
  <rect x="10" y="118" width="100" height="24" rx="3" fill="#7b1fa2" opacity="0.9"/>
  <text x="60" y="134" text-anchor="middle" font-family="Georgia,serif" font-size="9.5" fill="white" font-weight="bold" letter-spacing="1">PAPILLON D'AMOUR</text>
</svg>
