<svg xmlns="http://www.w3.org/2000/svg" viewBox="0 0 120 150">
  <rect width="120" height="150" rx="4" fill="#fff5f7"/>
  <rect x="3" y="3" width="114" height="144" rx="2" fill="none" stroke="#e91e8c" stroke-width="0.8" stroke-dasharray="3,2"/>
  <g fill="#fff5f7" stroke="#f8c" stroke-width="0.5">
    <circle cx="6" cy="10" r="3.5"/><circle cx="6" cy="20" r="3.5"/><circle cx="6" cy="30" r="3.5"/><circle cx="6" cy="40" r="3.5"/><circle cx="6" cy="50" r="3.5"/><circle cx="6" cy="60" r="3.5"/><circle cx="6" cy="70" r="3.5"/><circle cx="6" cy="80" r="3.5"/><circle cx="6" cy="90" r="3.5"/><circle cx="6" cy="100" r="3.5"/><circle cx="6" cy="110" r="3.5"/><circle cx="6" cy="120" r="3.5"/><circle cx="6" cy="130" r="3.5"/><circle cx="6" cy="140" r="3.5"/>
    <circle cx="114" cy="10" r="3.5"/><circle cx="114" cy="20" r="3.5"/><circle cx="114" cy="30" r="3.5"/><circle cx="114" cy="40" r="3.5"/><circle cx="114" cy="50" r="3.5"/><circle cx="114" cy="60" r="3.5"/><circle cx="114" cy="70" r="3.5"/><circle cx="114" cy="80" r="3.5"/><circle cx="114" cy="90" r="3.5"/><circle cx="114" cy="100" r="3.5"/><circle cx="114" cy="110" r="3.5"/><circle cx="114" cy="120" r="3.5"/><circle cx="114" cy="130" r="3.5"/><circle cx="114" cy="140" r="3.5"/>
    <circle cx="20" cy="5" r="3.5"/><circle cx="30" cy="5" r="3.5"/><circle cx="40" cy="5" r="3.5"/><circle cx="50" cy="5" r="3.5"/><circle cx="60" cy="5" r="3.5"/><circle cx="70" cy="5" r="3.5"/><circle cx="80" cy="5" r="3.5"/><circle cx="90" cy="5" r="3.5"/><circle cx="100" cy="5" r="3.5"/>
    <circle cx="20" cy="145" r="3.5"/><circle cx="30" cy="145" r="3.5"/><circle cx="40" cy="145" r="3.5"/><circle cx="50" cy="145" r="3.5"/><circle cx="60" cy="145" r="3.5"/><circle cx="70" cy="145" r="3.5"/><circle cx="80" cy="145" r="3.5"/><circle cx="90" cy="145" r="3.5"/><circle cx="100" cy="145" r="3.5"/>
  </g>
  <rect x="10" y="10" width="100" height="100" rx="3" fill="#fff5f7"/>
  <!-- Grand cœur central -->
  <path d="M60 90 L22 52 C16 46 16 36 22 30 C28 24 38 24 44 30 L60 46 L76 30 C82 24 92 24 98 30 C104 36 104 46 98 52 Z" fill="url(#heartgrad)" filter="url(#heartshadow)"/>
  <defs>
    <linearGradient id="heartgrad" x1="0" y1="0" x2="1" y2="1">
      <stop offset="0%" stop-color="#ff6b6b"/>
      <stop offset="50%" stop-color="#e91e8c"/>
      <stop offset="100%" stop-color="#c2185b"/>
    </linearGradient>
    <filter id="heartshadow" x="-20%" y="-20%" width="140%" height="140%">
      <feDropShadow dx="2" dy="3" stdDeviation="3" flood-color="#e91e8c" flood-opacity="0.3"/>
    </filter>
  </defs>
  <!-- Reflet lumière -->
  <ellipse cx="45" cy="38" rx="8" ry="5" fill="white" opacity="0.35" transform="rotate(-30,45,38)"/>
  <!-- Petits cœurs -->
  <path d="M25 22 L18 15 C16 13 16 10 18 8 C20 6 23 6 25 8 L25 8 L25 8 C27 6 30 6 32 8 C34 10 34 13 32 15 Z" fill="#ff9eb5" opacity="0.8"/>
  <path d="M95 20 L88 13 C86 11 86 8 88 6 C90 4 93 4 95 6 C97 4 100 4 102 6 C104 8 104 11 102 13 Z" fill="#ff6b9d" opacity="0.7"/>
  <path d="M20 75 L14 69 C12.5 67.5 12.5 65 14 63.5 C15.5 62 18 62 19.5 63.5 C21 62 23.5 62 25 63.5 C26.5 65 26.5 67.5 25 69 Z" fill="#ffadc8" opacity="0.6"/>
  <path d="M100 75 L94 69 C92.5 67.5 92.5 65 94 63.5 C95.5 62 98 62 99.5 63.5 C101 62 103.5 62 105 63.5 C106.5 65 106.5 67.5 105 69 Z" fill="#ff8ab0" opacity="0.65"/>
  <!-- Étincelles -->
  <line x1="60" y1="15" x2="60" y2="22" stroke="#e91e8c" stroke-width="1.5" stroke-linecap="round"/>
  <line x1="56" y1="16" x2="54" y2="23" stroke="#ff6b9d" stroke-width="1.2" stroke-linecap="round"/>
  <line x1="64" y1="16" x2="66" y2="23" stroke="#ff6b9d" stroke-width="1.2" stroke-linecap="round"/>
  <circle cx="60" cy="13" r="1.5" fill="#e91e8c"/>
  <circle cx="53" cy="25" r="1" fill="#ffadc8"/>
  <circle cx="67" cy="25" r="1" fill="#ffadc8"/>
  <!-- Label -->
  <rect x="10" y="118" width="100" height="24" rx="3" fill="#e91e8c" opacity="0.9"/>
  <text x="60" y="134" text-anchor="middle" font-family="Georgia,serif" font-size="9.5" fill="white" font-weight="bold" letter-spacing="1">AVEC AMOUR</text>
</svg>
