<svg xmlns="http://www.w3.org/2000/svg" viewBox="0 0 120 150">
  <rect width="120" height="150" rx="4" fill="#f0f7ff"/>
  <rect x="3" y="3" width="114" height="144" rx="2" fill="none" stroke="#1976d2" stroke-width="0.8" stroke-dasharray="3,2"/>
  <g fill="#f0f7ff" stroke="#a0c4ff" stroke-width="0.5">
    <circle cx="6" cy="10" r="3.5"/><circle cx="6" cy="20" r="3.5"/><circle cx="6" cy="30" r="3.5"/><circle cx="6" cy="40" r="3.5"/><circle cx="6" cy="50" r="3.5"/><circle cx="6" cy="60" r="3.5"/><circle cx="6" cy="70" r="3.5"/><circle cx="6" cy="80" r="3.5"/><circle cx="6" cy="90" r="3.5"/><circle cx="6" cy="100" r="3.5"/><circle cx="6" cy="110" r="3.5"/><circle cx="6" cy="120" r="3.5"/><circle cx="6" cy="130" r="3.5"/><circle cx="6" cy="140" r="3.5"/>
    <circle cx="114" cy="10" r="3.5"/><circle cx="114" cy="20" r="3.5"/><circle cx="114" cy="30" r="3.5"/><circle cx="114" cy="40" r="3.5"/><circle cx="114" cy="50" r="3.5"/><circle cx="114" cy="60" r="3.5"/><circle cx="114" cy="70" r="3.5"/><circle cx="114" cy="80" r="3.5"/><circle cx="114" cy="90" r="3.5"/><circle cx="114" cy="100" r="3.5"/><circle cx="114" cy="110" r="3.5"/><circle cx="114" cy="120" r="3.5"/><circle cx="114" cy="130" r="3.5"/><circle cx="114" cy="140" r="3.5"/>
    <circle cx="20" cy="5" r="3.5"/><circle cx="30" cy="5" r="3.5"/><circle cx="40" cy="5" r="3.5"/><circle cx="50" cy="5" r="3.5"/><circle cx="60" cy="5" r="3.5"/><circle cx="70" cy="5" r="3.5"/><circle cx="80" cy="5" r="3.5"/><circle cx="90" cy="5" r="3.5"/><circle cx="100" cy="5" r="3.5"/>
    <circle cx="20" cy="145" r="3.5"/><circle cx="30" cy="145" r="3.5"/><circle cx="40" cy="145" r="3.5"/><circle cx="50" cy="145" r="3.5"/><circle cx="60" cy="145" r="3.5"/><circle cx="70" cy="145" r="3.5"/><circle cx="80" cy="145" r="3.5"/><circle cx="90" cy="145" r="3.5"/><circle cx="100" cy="145" r="3.5"/>
  </g>
  <defs>
    <linearGradient id="lhsky" x1="0" y1="0" x2="0" y2="1">
      <stop offset="0%" stop-color="#e3f2fd"/>
      <stop offset="100%" stop-color="#bbdefb"/>
    </linearGradient>
    <linearGradient id="lhsea" x1="0" y1="0" x2="0" y2="1">
      <stop offset="0%" stop-color="#1565c0"/>
      <stop offset="100%" stop-color="#0d47a1"/>
    </linearGradient>
  </defs>
  <!-- Ciel -->
  <rect x="10" y="10" width="100" height="80" rx="3" fill="url(#lhsky)"/>
  <!-- Nuages -->
  <ellipse cx="30" cy="22" rx="14" ry="6" fill="white" opacity="0.9"/>
  <ellipse cx="40" cy="20" rx="10" ry="5" fill="white" opacity="0.8"/>
  <ellipse cx="80" cy="18" rx="12" ry="5.5" fill="white" opacity="0.85"/>
  <ellipse cx="88" cy="16" rx="8" ry="4.5" fill="white" opacity="0.75"/>
  <!-- Mer -->
  <rect x="10" y="85" width="100" height="25" fill="url(#lhsea)"/>
  <!-- Vagues -->
  <path d="M10 88 Q25 85 40 88 Q55 91 70 88 Q85 85 100 88 Q110 90 110 90 L110 110 L10 110 Z" fill="#1976d2" opacity="0.3"/>
  <path d="M10 95 Q22 92 35 95 Q48 98 60 95 Q73 92 85 95 Q97 98 110 95" stroke="white" stroke-width="0.8" fill="none" opacity="0.4"/>
  <!-- Rochers -->
  <ellipse cx="35" cy="110" rx="18" ry="8" fill="#607d8b"/>
  <ellipse cx="90" cy="113" rx="12" ry="6" fill="#546e7a"/>
  <!-- Phare -->
  <rect x="53" y="45" width="14" height="45" fill="white"/>
  <!-- Rayures rouges -->
  <rect x="53" y="50" width="14" height="6" fill="#d32f2f"/>
  <rect x="53" y="62" width="14" height="6" fill="#d32f2f"/>
  <rect x="53" y="74" width="14" height="6" fill="#d32f2f"/>
  <!-- Sommet -->
  <polygon points="60,25 50,45 70,45" fill="#b71c1c"/>
  <!-- Lanterne -->
  <rect x="52" y="38" width="16" height="10" rx="2" fill="#ffd700" opacity="0.9"/>
  <rect x="54" y="40" width="12" height="6" rx="1" fill="#fff176"/>
  <!-- Rayons de lumière -->
  <line x1="60" y1="40" x2="20" y2="20" stroke="#ffd700" stroke-width="1.2" opacity="0.4"/>
  <line x1="60" y1="40" x2="100" y2="22" stroke="#ffd700" stroke-width="1.2" opacity="0.4"/>
  <line x1="60" y1="40" x2="15" y2="60" stroke="#ffd700" stroke-width="1" opacity="0.25"/>
  <line x1="60" y1="40" x2="105" y2="58" stroke="#ffd700" stroke-width="1" opacity="0.25"/>
  <!-- Porte et fenêtres -->
  <rect x="57" y="78" width="6" height="8" rx="3" fill="#90a4ae"/>
  <rect x="55" y="58" width="4" height="5" rx="2" fill="#90a4ae"/>
  <rect x="61" y="58" width="4" height="5" rx="2" fill="#90a4ae"/>
  <!-- Balcon -->
  <rect x="49" y="43" width="22" height="2" fill="#b0bec5"/>
  <line x1="51" y1="43" x2="51" y2="47" stroke="#b0bec5" stroke-width="1"/>
  <line x1="55" y1="43" x2="55" y2="47" stroke="#b0bec5" stroke-width="1"/>
  <line x1="65" y1="43" x2="65" y2="47" stroke="#b0bec5" stroke-width="1"/>
  <line x1="69" y1="43" x2="69" y2="47" stroke="#b0bec5" stroke-width="1"/>
  <!-- Label -->
  <rect x="10" y="118" width="100" height="24" rx="3" fill="#1565c0" opacity="0.9"/>
  <text x="60" y="134" text-anchor="middle" font-family="Georgia,serif" font-size="9.5" fill="white" font-weight="bold" letter-spacing="1">PHARE DE L'AMOUR</text>
</svg>
