<svg xmlns="http://www.w3.org/2000/svg" viewBox="0 0 120 150">
  <rect width="120" height="150" rx="4" fill="#0a0e2a"/>
  <rect x="3" y="3" width="114" height="144" rx="2" fill="none" stroke="#ffd700" stroke-width="0.8" stroke-dasharray="3,2"/>
  <g fill="#0a0e2a" stroke="#ffd700" stroke-width="0.5" opacity="0.7">
    <circle cx="6" cy="10" r="3.5"/><circle cx="6" cy="20" r="3.5"/><circle cx="6" cy="30" r="3.5"/><circle cx="6" cy="40" r="3.5"/><circle cx="6" cy="50" r="3.5"/><circle cx="6" cy="60" r="3.5"/><circle cx="6" cy="70" r="3.5"/><circle cx="6" cy="80" r="3.5"/><circle cx="6" cy="90" r="3.5"/><circle cx="6" cy="100" r="3.5"/><circle cx="6" cy="110" r="3.5"/><circle cx="6" cy="120" r="3.5"/><circle cx="6" cy="130" r="3.5"/><circle cx="6" cy="140" r="3.5"/>
    <circle cx="114" cy="10" r="3.5"/><circle cx="114" cy="20" r="3.5"/><circle cx="114" cy="30" r="3.5"/><circle cx="114" cy="40" r="3.5"/><circle cx="114" cy="50" r="3.5"/><circle cx="114" cy="60" r="3.5"/><circle cx="114" cy="70" r="3.5"/><circle cx="114" cy="80" r="3.5"/><circle cx="114" cy="90" r="3.5"/><circle cx="114" cy="100" r="3.5"/><circle cx="114" cy="110" r="3.5"/><circle cx="114" cy="120" r="3.5"/><circle cx="114" cy="130" r="3.5"/><circle cx="114" cy="140" r="3.5"/>
    <circle cx="20" cy="5" r="3.5"/><circle cx="30" cy="5" r="3.5"/><circle cx="40" cy="5" r="3.5"/><circle cx="50" cy="5" r="3.5"/><circle cx="60" cy="5" r="3.5"/><circle cx="70" cy="5" r="3.5"/><circle cx="80" cy="5" r="3.5"/><circle cx="90" cy="5" r="3.5"/><circle cx="100" cy="5" r="3.5"/>
    <circle cx="20" cy="145" r="3.5"/><circle cx="30" cy="145" r="3.5"/><circle cx="40" cy="145" r="3.5"/><circle cx="50" cy="145" r="3.5"/><circle cx="60" cy="145" r="3.5"/><circle cx="70" cy="145" r="3.5"/><circle cx="80" cy="145" r="3.5"/><circle cx="90" cy="145" r="3.5"/><circle cx="100" cy="145" r="3.5"/>
  </g>
  <rect x="10" y="10" width="100" height="100" rx="3" fill="#060918"/>
  <!-- Étoiles -->
  <circle cx="18" cy="16" r="1.2" fill="white" opacity="0.9"/>
  <circle cx="30" cy="12" r="0.9" fill="white" opacity="0.8"/>
  <circle cx="46" cy="18" r="1" fill="white" opacity="0.7"/>
  <circle cx="75" cy="14" r="1.1" fill="white"/>
  <circle cx="90" cy="11" r="0.8" fill="white" opacity="0.9"/>
  <circle cx="103" cy="17" r="1" fill="white" opacity="0.7"/>
  <circle cx="22" cy="28" r="0.8" fill="white" opacity="0.6"/>
  <circle cx="58" cy="22" r="1.2" fill="white" opacity="0.8"/>
  <circle cx="80" cy="25" r="0.7" fill="white"/>
  <circle cx="97" cy="30" r="0.9" fill="white" opacity="0.6"/>
  <circle cx="15" cy="42" r="0.7" fill="white" opacity="0.5"/>
  <circle cx="35" cy="38" r="0.8" fill="white" opacity="0.7"/>
  <circle cx="70" cy="35" r="0.6" fill="white"/>
  <circle cx="105" cy="45" r="0.8" fill="white" opacity="0.5"/>
  <!-- Lune croissant grande -->
  <circle cx="58" cy="50" r="26" fill="#ffd700" opacity="0.95"/>
  <circle cx="50" cy="43" r="22" fill="#060918"/>
  <!-- Halo lune -->
  <circle cx="58" cy="50" r="32" fill="none" stroke="#ffd700" stroke-width="1.5" opacity="0.15"/>
  <circle cx="58" cy="50" r="38" fill="none" stroke="#ffd700" stroke-width="0.8" opacity="0.08"/>
  <!-- Étoile brillante near moon -->
  <g transform="translate(88,38)">
    <line x1="0" y1="-5" x2="0" y2="5" stroke="#fff9c4" stroke-width="1.8" opacity="0.9"/>
    <line x1="-5" y1="0" x2="5" y2="0" stroke="#fff9c4" stroke-width="1.8" opacity="0.9"/>
    <line x1="-3.5" y1="-3.5" x2="3.5" y2="3.5" stroke="#fff9c4" stroke-width="0.9" opacity="0.5"/>
    <line x1="3.5" y1="-3.5" x2="-3.5" y2="3.5" stroke="#fff9c4" stroke-width="0.9" opacity="0.5"/>
    <circle cx="0" cy="0" r="2" fill="white"/>
  </g>
  <!-- Silhouette colline avec arbre -->
  <path d="M10 100 Q28 88 45 90 Q60 93 75 86 Q90 78 110 85 L110 110 L10 110 Z" fill="#0d1a1a"/>
  <!-- Grand arbre -->
  <line x1="68" y1="110" x2="68" y2="82" stroke="#1a2a1a" stroke-width="2.5"/>
  <ellipse cx="68" cy="78" rx="10" ry="7" fill="#0f2a10" opacity="0.9"/>
  <ellipse cx="68" cy="73" rx="7" ry="5" fill="#1a3a1a"/>
  <ellipse cx="68" cy="70" rx="5" ry="4" fill="#0f2a10"/>
  <!-- Petit banc -->
  <rect x="38" y="100" width="16" height="2" fill="#2a1a0a"/>
  <line x1="40" y1="102" x2="40" y2="107" stroke="#2a1a0a" stroke-width="1.5"/>
  <line x1="52" y1="102" x2="52" y2="107" stroke="#2a1a0a" stroke-width="1.5"/>
  <!-- Couple assis -->
  <circle cx="43" cy="97" r="2.5" fill="#2d1b0e"/>
  <rect x="41" y="99" width="5" height="5" rx="1" fill="#1a1a2e"/>
  <circle cx="50" cy="97" r="2.5" fill="#2d1b0e"/>
  <rect x="48" y="99" width="5" height="5" rx="1" fill="#1a1a2e"/>
  <!-- Mains liées -->
  <line x1="46" y1="101.5" x2="48" y2="101.5" stroke="#5d4037" stroke-width="1.2"/>
  <!-- Étoiles filantes -->
  <line x1="90" y1="18" x2="100" y2="24" stroke="white" stroke-width="0.8" opacity="0.6"/>
  <circle cx="100" cy="24" r="0.8" fill="white" opacity="0.7"/>
  <!-- Label -->
  <rect x="10" y="118" width="100" height="24" rx="3" fill="#0d2060" opacity="0.95"/>
  <text x="60" y="134" text-anchor="middle" font-family="Georgia,serif" font-size="9.5" fill="#ffd700" font-weight="bold" letter-spacing="1">CLAIR DE LUNE</text>
</svg>
