<svg xmlns="http://www.w3.org/2000/svg" viewBox="0 0 160 190" width="160" height="190">
  <defs>
    <radialGradient id="nightsky" cx="50%" cy="30%" r="80%">
      <stop offset="0%" stop-color="#283593"/>
      <stop offset="100%" stop-color="#0d1b6e"/>
    </radialGradient>
    <radialGradient id="moon" cx="40%" cy="40%" r="60%">
      <stop offset="0%" stop-color="#fff9c4"/>
      <stop offset="100%" stop-color="#fff176"/>
    </radialGradient>
    <radialGradient id="glow" cx="50%" cy="50%" r="50%">
      <stop offset="0%" stop-color="#fff176" stop-opacity="0.4"/>
      <stop offset="100%" stop-color="#fff176" stop-opacity="0"/>
    </radialGradient>
    <linearGradient id="bg3" x1="0%" y1="0%" x2="0%" y2="100%">
      <stop offset="0%" stop-color="#1a237e"/>
      <stop offset="100%" stop-color="#311b92"/>
    </linearGradient>
  </defs>

  <!-- Dentelure haut -->
  <circle cx="8" cy="8" r="5.5" fill="white"/><circle cx="22" cy="4" r="5.5" fill="white"/><circle cx="36" cy="4" r="5.5" fill="white"/><circle cx="50" cy="4" r="5.5" fill="white"/><circle cx="64" cy="4" r="5.5" fill="white"/><circle cx="78" cy="4" r="5.5" fill="white"/><circle cx="92" cy="4" r="5.5" fill="white"/><circle cx="106" cy="4" r="5.5" fill="white"/><circle cx="120" cy="4" r="5.5" fill="white"/><circle cx="134" cy="4" r="5.5" fill="white"/><circle cx="148" cy="4" r="5.5" fill="white"/><circle cx="152" cy="8" r="5.5" fill="white"/>
  <!-- Dentelure bas -->
  <circle cx="8" cy="182" r="5.5" fill="white"/><circle cx="22" cy="186" r="5.5" fill="white"/><circle cx="36" cy="186" r="5.5" fill="white"/><circle cx="50" cy="186" r="5.5" fill="white"/><circle cx="64" cy="186" r="5.5" fill="white"/><circle cx="78" cy="186" r="5.5" fill="white"/><circle cx="92" cy="186" r="5.5" fill="white"/><circle cx="106" cy="186" r="5.5" fill="white"/><circle cx="120" cy="186" r="5.5" fill="white"/><circle cx="134" cy="186" r="5.5" fill="white"/><circle cx="148" cy="186" r="5.5" fill="white"/><circle cx="152" cy="182" r="5.5" fill="white"/>
  <!-- Dentelure gauche -->
  <circle cx="4" cy="22" r="5.5" fill="white"/><circle cx="4" cy="36" r="5.5" fill="white"/><circle cx="4" cy="50" r="5.5" fill="white"/><circle cx="4" cy="64" r="5.5" fill="white"/><circle cx="4" cy="78" r="5.5" fill="white"/><circle cx="4" cy="92" r="5.5" fill="white"/><circle cx="4" cy="106" r="5.5" fill="white"/><circle cx="4" cy="120" r="5.5" fill="white"/><circle cx="4" cy="134" r="5.5" fill="white"/><circle cx="4" cy="148" r="5.5" fill="white"/><circle cx="4" cy="162" r="5.5" fill="white"/>
  <!-- Dentelure droite -->
  <circle cx="156" cy="22" r="5.5" fill="white"/><circle cx="156" cy="36" r="5.5" fill="white"/><circle cx="156" cy="50" r="5.5" fill="white"/><circle cx="156" cy="64" r="5.5" fill="white"/><circle cx="156" cy="78" r="5.5" fill="white"/><circle cx="156" cy="92" r="5.5" fill="white"/><circle cx="156" cy="106" r="5.5" fill="white"/><circle cx="156" cy="120" r="5.5" fill="white"/><circle cx="156" cy="134" r="5.5" fill="white"/><circle cx="156" cy="148" r="5.5" fill="white"/><circle cx="156" cy="162" r="5.5" fill="white"/>

  <!-- Corps du timbre -->
  <rect x="8" y="8" width="144" height="174" rx="3" fill="url(#bg3)"/>
  <rect x="10" y="10" width="140" height="170" rx="2" fill="none" stroke="#9575cd" stroke-width="2.5"/>
  <rect x="14" y="14" width="132" height="162" rx="2" fill="none" stroke="#7e57c2" stroke-width="0.8"/>

  <!-- Ciel nocturne -->
  <rect x="15" y="15" width="130" height="130" rx="2" fill="url(#nightsky)"/>

  <!-- Étoiles -->
  <circle cx="25" cy="24" r="1.2" fill="white" opacity="0.9"/>
  <circle cx="42" cy="19" r="1.5" fill="white"/>
  <circle cx="58" cy="28" r="1" fill="white" opacity="0.8"/>
  <circle cx="30" cy="38" r="0.8" fill="white" opacity="0.7"/>
  <circle cx="55" cy="40" r="1.2" fill="white"/>
  <circle cx="72" cy="22" r="1.5" fill="white" opacity="0.9"/>
  <circle cx="88" cy="30" r="0.9" fill="white" opacity="0.8"/>
  <circle cx="48" cy="50" r="0.8" fill="white" opacity="0.6"/>
  <circle cx="32" cy="58" r="1" fill="white" opacity="0.8"/>
  <circle cx="62" cy="55" r="0.7" fill="white" opacity="0.7"/>
  <!-- Étoile scintillante -->
  <path d="M40 44 L41.5 41 L43 44 L46 45.5 L43 47 L41.5 50 L40 47 L37 45.5Z" fill="white" opacity="0.9"/>
  <!-- Étoile filante -->
  <line x1="70" y1="35" x2="85" y2="45" stroke="white" stroke-width="1" opacity="0.6" stroke-linecap="round"/>
  <circle cx="70" cy="35" r="1.5" fill="white" opacity="0.9"/>

  <!-- Lune -->
  <circle cx="118" cy="35" r="18" fill="url(#moon)"/>
  <circle cx="126" cy="28" r="16" fill="#1a237e"/>
  <!-- Halo lune -->
  <circle cx="118" cy="35" r="24" fill="url(#glow)"/>
  <!-- Cratères lune visibles -->
  <circle cx="110" cy="32" r="2.5" fill="#fff9c4" opacity="0.4"/>
  <circle cx="115" cy="42" r="1.8" fill="#fff9c4" opacity="0.4"/>

  <!-- Silhouette ville / château -->
  <!-- Tour gauche -->
  <rect x="18" y="95" width="16" height="50" fill="#0d1b6e"/>
  <rect x="16" y="90" width="20" height="8" fill="#0d1b6e"/>
  <rect x="17" y="86" width="4" height="6" fill="#0d1b6e"/>
  <rect x="23" y="86" width="4" height="6" fill="#0d1b6e"/>
  <rect x="29" y="86" width="4" height="6" fill="#0d1b6e"/>
  <!-- Fenêtres tour gauche illuminées -->
  <rect x="22" y="100" width="5" height="7" rx="2" fill="#fff176" opacity="0.8"/>
  <rect x="22" y="114" width="5" height="7" rx="2" fill="#fff176" opacity="0.6"/>
  <rect x="22" y="128" width="5" height="7" rx="2" fill="#ffcc02" opacity="0.5"/>

  <!-- Bâtiment central -->
  <rect x="52" y="80" width="56" height="65" fill="#0d1b6e"/>
  <!-- Toit pointu -->
  <polygon points="52,80 80,55 108,80" fill="#1a237e"/>
  <!-- Fenêtres -->
  <rect x="62" y="88" width="8" height="10" rx="2" fill="#fff176" opacity="0.7"/>
  <rect x="90" y="88" width="8" height="10" rx="2" fill="#fff176" opacity="0.7"/>
  <rect x="62" y="105" width="8" height="10" rx="2" fill="#ffcc02" opacity="0.6"/>
  <rect x="90" y="105" width="8" height="10" rx="2" fill="#ffcc02" opacity="0.6"/>
  <!-- Grande fenêtre ronde -->
  <circle cx="80" cy="72" r="6" fill="#fff9c4" opacity="0.5"/>
  <!-- Porte -->
  <rect x="72" y="128" width="16" height="17" rx="3" fill="#fff176" opacity="0.4"/>

  <!-- Tour droite -->
  <rect x="126" y="98" width="14" height="47" fill="#0d1b6e"/>
  <rect x="124" y="92" width="18" height="8" fill="#0d1b6e"/>
  <rect x="125" y="88" width="4" height="6" fill="#0d1b6e"/>
  <rect x="131" y="88" width="4" height="6" fill="#0d1b6e"/>
  <rect x="137" y="88" width="4" height="6" fill="#0d1b6e"/>
  <rect x="129" y="103" width="5" height="7" rx="2" fill="#fff176" opacity="0.8"/>
  <rect x="129" y="117" width="5" height="7" rx="2" fill="#fff176" opacity="0.6"/>

  <!-- Arbres silhouette -->
  <ellipse cx="42" cy="128" rx="10" ry="14" fill="#0a1540"/>
  <rect x="39" y="132" width="5" height="15" fill="#0a1540"/>
  <ellipse cx="120" cy="126" rx="10" ry="14" fill="#0a1540"/>
  <rect x="117" y="130" width="5" height="15" fill="#0a1540"/>

  <!-- Sol -->
  <rect x="15" y="140" width="130" height="5" fill="#0d1b6e"/>

  <!-- Coeurs dans le ciel -->
  <path d="M76 48 Q78 45 80 48 Q82 45 80 52 Q78 45 76 48Z" fill="#f48fb1" opacity="0.7"/>
  <path d="M86 58 Q87.5 56 89 58 Q90.5 56 89 61 Q87.5 56 86 58Z" fill="#f06292" opacity="0.5"/>

  <!-- Bandeau bas -->
  <rect x="15" y="148" width="130" height="30" rx="2" fill="#311b92"/>
  <text x="80" y="157" text-anchor="middle" font-family="Georgia, serif" font-size="7" fill="#e8eaf6" font-weight="bold" letter-spacing="2">LOVEMAIL</text>
  <text x="80" y="170" text-anchor="middle" font-family="Georgia, serif" font-size="11" fill="#ce93d8" font-weight="bold">♥ 1er</text>
</svg>
