<svg xmlns="http://www.w3.org/2000/svg" viewBox="0 0 120 150">
  <!-- Fond timbre ivoire avec perforation -->
  <rect width="120" height="150" rx="4" fill="#fdf6e3"/>
  <rect x="3" y="3" width="114" height="144" rx="2" fill="none" stroke="#c8a23c" stroke-width="0.8" stroke-dasharray="3,2"/>
  <!-- Perforations -->
  <g fill="#fdf6e3" stroke="#ddd" stroke-width="0.5">
    <circle cx="6" cy="10" r="3.5"/><circle cx="6" cy="20" r="3.5"/><circle cx="6" cy="30" r="3.5"/><circle cx="6" cy="40" r="3.5"/><circle cx="6" cy="50" r="3.5"/><circle cx="6" cy="60" r="3.5"/><circle cx="6" cy="70" r="3.5"/><circle cx="6" cy="80" r="3.5"/><circle cx="6" cy="90" r="3.5"/><circle cx="6" cy="100" r="3.5"/><circle cx="6" cy="110" r="3.5"/><circle cx="6" cy="120" r="3.5"/><circle cx="6" cy="130" r="3.5"/><circle cx="6" cy="140" r="3.5"/>
    <circle cx="114" cy="10" r="3.5"/><circle cx="114" cy="20" r="3.5"/><circle cx="114" cy="30" r="3.5"/><circle cx="114" cy="40" r="3.5"/><circle cx="114" cy="50" r="3.5"/><circle cx="114" cy="60" r="3.5"/><circle cx="114" cy="70" r="3.5"/><circle cx="114" cy="80" r="3.5"/><circle cx="114" cy="90" r="3.5"/><circle cx="114" cy="100" r="3.5"/><circle cx="114" cy="110" r="3.5"/><circle cx="114" cy="120" r="3.5"/><circle cx="114" cy="130" r="3.5"/><circle cx="114" cy="140" r="3.5"/>
    <circle cx="20" cy="5" r="3.5"/><circle cx="30" cy="5" r="3.5"/><circle cx="40" cy="5" r="3.5"/><circle cx="50" cy="5" r="3.5"/><circle cx="60" cy="5" r="3.5"/><circle cx="70" cy="5" r="3.5"/><circle cx="80" cy="5" r="3.5"/><circle cx="90" cy="5" r="3.5"/><circle cx="100" cy="5" r="3.5"/>
    <circle cx="20" cy="145" r="3.5"/><circle cx="30" cy="145" r="3.5"/><circle cx="40" cy="145" r="3.5"/><circle cx="50" cy="145" r="3.5"/><circle cx="60" cy="145" r="3.5"/><circle cx="70" cy="145" r="3.5"/><circle cx="80" cy="145" r="3.5"/><circle cx="90" cy="145" r="3.5"/><circle cx="100" cy="145" r="3.5"/>
  </g>
  <!-- Rose centrale rouge -->
  <g transform="translate(60,62)">
    <!-- Pétales extérieurs -->
    <ellipse cx="0" cy="-22" rx="10" ry="14" fill="#c0392b" opacity="0.8" transform="rotate(0)"/>
    <ellipse cx="0" cy="-22" rx="10" ry="14" fill="#e74c3c" opacity="0.9" transform="rotate(45)"/>
    <ellipse cx="0" cy="-22" rx="10" ry="14" fill="#c0392b" opacity="0.85" transform="rotate(90)"/>
    <ellipse cx="0" cy="-22" rx="10" ry="14" fill="#e74c3c" opacity="0.8" transform="rotate(135)"/>
    <ellipse cx="0" cy="-22" rx="10" ry="14" fill="#c0392b" opacity="0.9" transform="rotate(180)"/>
    <ellipse cx="0" cy="-22" rx="10" ry="14" fill="#e74c3c" opacity="0.85" transform="rotate(225)"/>
    <ellipse cx="0" cy="-22" rx="10" ry="14" fill="#c0392b" opacity="0.8" transform="rotate(270)"/>
    <ellipse cx="0" cy="-22" rx="10" ry="14" fill="#e74c3c" opacity="0.9" transform="rotate(315)"/>
    <!-- Pétales milieu -->
    <ellipse cx="0" cy="-14" rx="7" ry="10" fill="#e74c3c" transform="rotate(22)"/>
    <ellipse cx="0" cy="-14" rx="7" ry="10" fill="#c0392b" transform="rotate(67)"/>
    <ellipse cx="0" cy="-14" rx="7" ry="10" fill="#e74c3c" transform="rotate(112)"/>
    <ellipse cx="0" cy="-14" rx="7" ry="10" fill="#c0392b" transform="rotate(157)"/>
    <ellipse cx="0" cy="-14" rx="7" ry="10" fill="#e74c3c" transform="rotate(202)"/>
    <ellipse cx="0" cy="-14" rx="7" ry="10" fill="#c0392b" transform="rotate(247)"/>
    <ellipse cx="0" cy="-14" rx="7" ry="10" fill="#e74c3c" transform="rotate(292)"/>
    <ellipse cx="0" cy="-14" rx="7" ry="10" fill="#c0392b" transform="rotate(337)"/>
    <!-- Cœur -->
    <circle cx="0" cy="0" r="8" fill="#96281b"/>
    <circle cx="0" cy="0" r="5" fill="#c0392b"/>
    <!-- Feuilles -->
    <ellipse cx="-20" cy="15" rx="8" ry="4" fill="#27ae60" transform="rotate(-30,-20,15)"/>
    <ellipse cx="20" cy="18" rx="8" ry="4" fill="#2ecc71" transform="rotate(25,20,18)"/>
    <!-- Tige -->
    <path d="M0 8 Q-5 25 -3 40" stroke="#27ae60" stroke-width="2.5" fill="none" stroke-linecap="round"/>
  </g>
  <!-- Petites roses décoratives -->
  <g transform="translate(25,40) scale(0.45)">
    <ellipse cx="0" cy="-20" rx="9" ry="12" fill="#e74c3c" opacity="0.8" transform="rotate(0)"/>
    <ellipse cx="0" cy="-20" rx="9" ry="12" fill="#c0392b" opacity="0.8" transform="rotate(60)"/>
    <ellipse cx="0" cy="-20" rx="9" ry="12" fill="#e74c3c" opacity="0.8" transform="rotate(120)"/>
    <ellipse cx="0" cy="-20" rx="9" ry="12" fill="#c0392b" opacity="0.8" transform="rotate(180)"/>
    <ellipse cx="0" cy="-20" rx="9" ry="12" fill="#e74c3c" opacity="0.8" transform="rotate(240)"/>
    <ellipse cx="0" cy="-20" rx="9" ry="12" fill="#c0392b" opacity="0.8" transform="rotate(300)"/>
    <circle cx="0" cy="0" r="6" fill="#96281b"/>
  </g>
  <g transform="translate(95,45) scale(0.4)">
    <ellipse cx="0" cy="-20" rx="9" ry="12" fill="#e74c3c" opacity="0.8" transform="rotate(0)"/>
    <ellipse cx="0" cy="-20" rx="9" ry="12" fill="#c0392b" opacity="0.8" transform="rotate(60)"/>
    <ellipse cx="0" cy="-20" rx="9" ry="12" fill="#e74c3c" opacity="0.8" transform="rotate(120)"/>
    <ellipse cx="0" cy="-20" rx="9" ry="12" fill="#c0392b" opacity="0.8" transform="rotate(180)"/>
    <ellipse cx="0" cy="-20" rx="9" ry="12" fill="#e74c3c" opacity="0.8" transform="rotate(240)"/>
    <ellipse cx="0" cy="-20" rx="9" ry="12" fill="#c0392b" opacity="0.8" transform="rotate(300)"/>
    <circle cx="0" cy="0" r="6" fill="#96281b"/>
  </g>
  <!-- Label -->
  <rect x="10" y="118" width="100" height="24" rx="3" fill="#c8392b" opacity="0.9"/>
  <text x="60" y="134" text-anchor="middle" font-family="Georgia,serif" font-size="9.5" fill="white" font-weight="bold" letter-spacing="1">ROSES ÉTERNELLES</text>
</svg>
